<?xml version="1.0" encoding="UTF-8" standalone="no"?>
<svg
   width="1956.4496"
   height="1201.8387"
   xml:space="preserve"
   overflow="hidden"
   version="1.1"
   id="svg9"
   sodipodi:docname="Logo-LightBG.svg"
   inkscape:export-filename="/Users/yassir/dev/projects/chaos/website/static/img/Logo-LightBG.png"
   inkscape:export-xdpi="45.513607"
   inkscape:export-ydpi="45.513607"
   inkscape:version="1.4 (86a8ad7, 2024-10-11)"
   xmlns:inkscape="http://www.inkscape.org/namespaces/inkscape"
   xmlns:sodipodi="http://sodipodi.sourceforge.net/DTD/sodipodi-0.dtd"
   xmlns="http://www.w3.org/2000/svg"
   xmlns:svg="http://www.w3.org/2000/svg"><sodipodi:namedview
     id="namedview9"
     pagecolor="#ffffff"
     bordercolor="#000000"
     borderopacity="0.25"
     inkscape:showpageshadow="2"
     inkscape:pageopacity="0.0"
     inkscape:pagecheckerboard="0"
     inkscape:deskcolor="#d1d1d1"
     inkscape:zoom="0.37669358"
     inkscape:cx="3186.9404"
     inkscape:cy="1142.8387"
     inkscape:window-width="5120"
     inkscape:window-height="1369"
     inkscape:window-x="-8"
     inkscape:window-y="-8"
     inkscape:window-maximized="1"
     inkscape:current-layer="svg9"
     showgrid="false"
     showguides="true"><inkscape:page
       x="0"
       y="0"
       width="1956.4496"
       height="1201.8387"
       id="page2"
       margin="0"
       bleed="0" /></sodipodi:namedview><defs
     id="defs1"><clipPath
       id="clip0"><path
         d="m 1016.5,1514.39 c -165.896,0 -300.382,134.59 -300.382,300.61 0,166.02 134.486,300.61 300.382,300.61 165.9,0 300.38,-134.59 300.38,-300.61 0,-166.02 -134.48,-300.61 -300.38,-300.61 z M 371,1169 H 1662 V 2461 H 371 Z"
         fill-rule="evenodd"
         clip-rule="evenodd"
         id="path1" /></clipPath></defs><g
     transform="translate(-415.0904,-1214.0806)"
     id="g9"><path
       d="m 1438.75,2208.63 c -217.59,233 -583.023,245.65 -816.223,28.25 -233.2,-217.4 -245.858,-582.51 -28.272,-815.51 217.585,-233 583.015,-245.65 816.215,-28.25 7.03,6.55 13.89,13.28 20.59,20.17 L 1016.5,1815 Z"
       stroke="#ffffff"
       stroke-width="48.125"
       stroke-miterlimit="8"
       fill-rule="evenodd"
       id="path2" /><path
       d="m 682,1815 c 0,-185.02 149.761,-335 334.5,-335 184.74,0 334.5,149.98 334.5,335 0,185.02 -149.76,335 -334.5,335 C 831.761,2150 682,2000.02 682,1815 Z"
       fill-rule="evenodd"
       id="path3" /><g
       clip-path="url(#clip0)"
       id="g6"><g
         id="g5"><g
           id="g4"><path
             d="m 645.5,806.875 c -88.756,0 -161.375,-72.619 -161.375,-161.375 0,-88.756 72.619,-161.375 161.375,-161.375 88.756,0 161.375,72.619 161.375,161.375 0,88.756 -72.619,161.375 -161.375,161.375 z m 363.09,-262.234 c -8.06,-29.586 -20.168,-57.826 -34.961,-83.377 l 33.621,-100.86 -76.654,-76.653 -100.859,33.62 C 802.841,302.578 774.6,290.475 745.015,282.406 L 699.292,188.271 H 591.708 l -47.067,94.135 c -29.586,8.069 -57.826,20.172 -83.377,34.965 l -100.86,-33.62 -76.653,76.653 33.62,100.86 c -14.793,26.895 -26.896,55.136 -34.965,84.721 l -94.135,45.723 v 107.584 l 94.135,47.067 c 8.069,29.586 20.172,57.826 34.965,83.378 l -33.62,100.859 76.653,76.654 100.86,-33.621 c 26.895,14.793 55.136,26.901 84.721,34.961 l 47.068,94.14 h 107.583 l 47.068,-94.14 c 29.586,-8.06 57.826,-20.168 83.377,-34.961 l 100.86,33.621 76.649,-76.654 -33.616,-100.859 c 14.793,-26.896 26.896,-55.137 34.966,-84.722 l 94.13,-47.068 V 590.364 Z"
             fill="#ffffff"
             transform="matrix(1,0,0,1.00077,371,1169)"
             id="path4" /></g></g></g><path
       d="m 848,1815 c 0,-93.34 75.664,-169 169,-169 93.34,0 169,75.66 169,169 0,93.34 -75.66,169 -169,169 -93.336,0 -169,-75.66 -169,-169 z"
       fill="#ffffff"
       fill-rule="evenodd"
       id="path6" /><text
       font-family="'Smooch Sans', 'Smooch Sans_MSFontService', sans-serif"
       font-weight="700"
       font-size="367px"
       transform="translate(1597.53,2059)"
       id="text6">ENGINE</text><text
       font-family="'Smooch Sans', 'Smooch Sans_MSFontService', sans-serif"
       font-weight="700"
       font-size="367px"
       transform="translate(2371.54,2059)"
       id="text7"> </text><text
       font-family="'Smooch Sans', 'Smooch Sans_MSFontService', sans-serif"
       font-weight="700"
       font-size="367px"
       transform="translate(1457,1786)"
       id="text8">CHAOS</text><text
       font-family="'Smooch Sans', 'Smooch Sans_MSFontService', sans-serif"
       font-weight="700"
       font-size="367px"
       transform="translate(2157.67,1786)"
       id="text9"> </text></g></svg>
