<svg version="1.1" viewBox="0.0 0.0 432.92913385826773 100.0" fill="none" stroke="none" stroke-linecap="square" stroke-miterlimit="10" xmlns:xlink="http://www.w3.org/1999/xlink" xmlns="http://www.w3.org/2000/svg"><clipPath id="p.0"><path d="m0 0l432.92914 0l0 100.0l-432.92914 0l0 -100.0z" clip-rule="nonzero"/></clipPath><g clip-path="url(#p.0)"><path fill="#000000" fill-opacity="0.0" d="m0 0l432.92914 0l0 100.0l-432.92914 0z" fill-rule="evenodd"/><path fill="#000000" fill-opacity="0.0" d="m-11.086615 4.7559056l457.5748 0l0 90.48819l-457.5748 0z" fill-rule="evenodd"/><path fill="#000000" d="m6.647761 27.34153q0.65625 0 1.09375 0.0625q0.43749952 0.0625 0.7812495 0.21875q0.359375 0.15625 0.671875 0.453125q0.328125 0.296875 0.75 0.796875l20.28125 25.65625q-0.109375 -1.234375 -0.171875 -2.390625q-0.0625 -1.15625 -0.0625 -2.1875l0 -22.609375l8.750002 0l0 42.734375l-5.171875 0q-1.140625 0 -1.9375019 -0.34375q-0.78125 -0.359375 -1.515625 -1.296875l-20.15625 -25.453125q0.09375 1.109375 0.15625 2.1875q0.0625 1.0625 0.0625 2.0l0 22.90625l-8.75 0l0 -42.734375l5.21875 0l0 0zm81.297226 21.359375q0 4.625 -1.59375 8.625q-1.59375 3.984375 -4.5 6.9375q-2.90625 2.9375 -7.0 4.609375q-4.09375 1.671875 -9.078125 1.671875q-4.984371 0 -9.093746 -1.671875q-4.09375 -1.671875 -7.015625 -4.609375q-2.921875 -2.953125 -4.515625 -6.9375q-1.59375 -4.0 -1.59375 -8.625q0 -4.640625 1.59375 -8.625q1.59375 -3.984375 4.515625 -6.921875q2.921875 -2.9375 7.015625 -4.609375q4.109375 -1.671875 9.093746 -1.671875q4.984375 0 9.078125 1.6875q4.09375 1.6875 7.0 4.625q2.90625 2.921875 4.5 6.921875q1.59375 3.984375 1.59375 8.59375zm-10.140625 0q0 -3.171875 -0.828125 -5.703125q-0.8125 -2.546875 -2.359375 -4.296875q-1.53125 -1.765625 -3.765625 -2.703125q-2.234375 -0.9375 -5.078125 -0.9375q-2.8749962 0 -5.124996 0.9375q-2.234375 0.9375 -3.78125 2.703125q-1.53125 1.75 -2.359375 4.296875q-0.8125 2.53125 -0.8125 5.703125q0 3.1875 0.8125 5.734375q0.828125 2.53125 2.359375 4.296875q1.546875 1.75 3.78125 2.671875q2.25 0.921875 5.124996 0.921875q2.84375 0 5.078125 -0.921875q2.234375 -0.921875 3.765625 -2.671875q1.546875 -1.765625 2.359375 -4.296875q0.828125 -2.546875 0.828125 -5.734375zm24.815598 5.5625l0 15.8125l-9.921875 0l0 -42.734375l13.90625 0q4.640625 0 7.90625 0.953125q3.265625 0.953125 5.328125 2.65625q2.078125 1.703125 3.015625 4.03125q0.9375 2.3125 0.9375 5.03125q0 2.078125 -0.5625 3.9375q-0.546875 1.84375 -1.65625 3.421875q-1.09375 1.5625 -2.703125 2.796875q-1.59375 1.21875 -3.671875 2.015625q1.0 0.5 1.859375 1.234375q0.859375 0.734375 1.515625 1.78125l9.09375 14.875l-8.984375 0q-2.484375 0 -3.578125 -1.875l-7.09375 -12.40625q-0.46875 -0.828125 -1.109375 -1.171875q-0.625 -0.359375 -1.765625 -0.359375l-2.515625 0zm0 -6.828125l3.984375 0q2.015625 0 3.4375 -0.515625q1.4375 -0.515625 2.34375 -1.421875q0.90625 -0.90625 1.3125 -2.125q0.40625 -1.21875 0.40625 -2.625q0 -2.8125 -1.828125 -4.390625q-1.828125 -1.59375 -5.671875 -1.59375l-3.984375 0l0 12.671875zm50.943886 3.109375q0.578125 1.109375 1.125 2.3125q0.546875 1.203125 1.046875 2.46875q0.484375 -1.296875 1.046875 -2.515625q0.5625 -1.21875 1.140625 -2.359375l10.96875 -21.578125q0.296875 -0.5625 0.59375 -0.859375q0.3125 -0.3125 0.6875 -0.453125q0.390625 -0.15625 0.875 -0.1875q0.484375 -0.03125 1.125 -0.03125l7.578125 0l0 42.734375l-8.75 0l0 -24.578125q0 -1.78125 0.1875 -3.875l-11.328125 21.96875q-0.53125 1.03125 -1.421875 1.5625q-0.890625 0.515625 -2.03125 0.515625l-1.359375 0q-1.140625 0 -2.03125 -0.515625q-0.890625 -0.53125 -1.421875 -1.5625l-11.375 -22.0q0.109375 1.03125 0.171875 2.046875q0.0625 1.015625 0.0625 1.859375l0 24.578125l-8.75 0l0 -42.734375l7.578125 0q0.640625 0 1.125 0.03125q0.484375 0.03125 0.859375 0.1875q0.390625 0.140625 0.6875 0.453125q0.3125 0.296875 0.609375 0.859375l11.0 21.671875l0 0z" fill-rule="nonzero"/><path fill="#000000" d="m209.89203 34.62278q-0.265625 0.4375 -0.5625 0.65625q-0.28125 0.21875 -0.75 0.21875q-0.5 0 -1.171875 -0.5q-0.65625 -0.5 -1.671875 -1.09375q-1.0 -0.609375 -2.421875 -1.109375q-1.421875 -0.5 -3.453125 -0.5q-1.90625 0 -3.375 0.515625q-1.453125 0.515625 -2.4375 1.40625q-0.984375 0.875 -1.484375 2.0625q-0.5 1.1875 -0.5 2.5625q0 1.765625 0.859375 2.921875q0.875 1.15625 2.296875 1.984375q1.421875 0.8125 3.21875 1.421875q1.8125 0.59375 3.703125 1.25q1.890625 0.640625 3.6875 1.453125q1.8125 0.796875 3.234375 2.03125q1.421875 1.21875 2.28125 3.015625q0.875 1.78125 0.875 4.40625q0 2.75 -0.953125 5.171875q-0.9375 2.421875 -2.734375 4.21875q-1.796875 1.78125 -4.421875 2.8125q-2.625 1.015625 -5.96875 1.015625q-4.078125 0 -7.4375 -1.484375q-3.359375 -1.484375 -5.734375 -4.0l1.640625 -2.703125q0.234375 -0.3125 0.5625 -0.53125q0.34375 -0.21875 0.75 -0.21875q0.625 0 1.40625 0.65625q0.796875 0.65625 1.984375 1.453125q1.1875 0.78125 2.875 1.453125q1.6875 0.65625 4.125 0.65625q2.015625 0 3.59375 -0.546875q1.59375 -0.5625 2.6875 -1.578125q1.109375 -1.015625 1.6875 -2.421875q0.59375 -1.40625 0.59375 -3.140625q0 -1.90625 -0.875 -3.125q-0.859375 -1.21875 -2.265625 -2.03125q-1.40625 -0.828125 -3.21875 -1.390625q-1.796875 -0.578125 -3.6875 -1.171875q-1.890625 -0.609375 -3.703125 -1.390625q-1.796875 -0.796875 -3.203125 -2.0625q-1.40625 -1.265625 -2.28125 -3.15625q-0.859375 -1.890625 -0.859375 -4.671875q0 -2.234375 0.859375 -4.3125q0.875 -2.078125 2.515625 -3.6875q1.640625 -1.625 4.0625 -2.59375q2.421875 -0.96875 5.5625 -0.96875q3.515625 0 6.421875 1.125q2.90625 1.109375 5.078125 3.21875l-1.390625 2.703125zm38.197174 -6.578125l0 4.78125l-13.59375 0l0 37.25l-5.6875 0l0 -37.25l-13.625 0l0 -4.78125l32.90625 0zm22.310272 37.515625q2.609375 0 4.65625 -0.875q2.0625 -0.890625 3.484375 -2.46875q1.421875 -1.578125 2.171875 -3.78125q0.75 -2.203125 0.75 -4.84375l0 -25.546875l5.65625 0l0 25.546875q0 3.640625 -1.15625 6.75q-1.15625 3.109375 -3.3125 5.390625q-2.15625 2.265625 -5.265625 3.5625q-3.109375 1.28125 -6.984375 1.28125q-3.875 0 -6.984375 -1.28125q-3.109375 -1.296875 -5.28125 -3.5625q-2.15625 -2.28125 -3.328125 -5.390625q-1.15625 -3.109375 -1.15625 -6.75l0 -25.546875l5.671875 0l0 25.515625q0 2.640625 0.734375 4.84375q0.75 2.203125 2.171875 3.78125q1.421875 1.578125 3.484375 2.484375q2.078125 0.890625 4.6875 0.890625zm62.91278 -16.484375q0 4.71875 -1.5 8.59375q-1.5 3.875 -4.234375 6.640625q-2.71875 2.75 -6.53125 4.265625q-3.8125 1.5 -8.4375 1.5l-15.71875 0l0 -42.03125l15.71875 0q4.625 0 8.4375 1.515625q3.8125 1.515625 6.53125 4.28125q2.734375 2.765625 4.234375 6.640625q1.5 3.875 1.5 8.59375zm-5.84375 0q0 -3.875 -1.0625 -6.921875q-1.046875 -3.046875 -2.984375 -5.15625q-1.9375 -2.109375 -4.6875 -3.21875q-2.75 -1.125 -6.125 -1.125l-10.0 0l0 32.8125l10.0 0q3.375 0 6.125 -1.109375q2.75 -1.109375 4.6875 -3.203125q1.9375 -2.109375 2.984375 -5.15625q1.0625 -3.046875 1.0625 -6.921875zm20.324402 21.0l-5.6875 0l0 -42.03125l5.6875 0l0 42.03125zm50.30432 -21.0q0 4.71875 -1.5 8.671875q-1.5 3.9375 -4.234375 6.78125q-2.71875 2.84375 -6.546875 4.421875q-3.828125 1.5625 -8.453125 1.5625q-4.640625 0 -8.453125 -1.5625q-3.8125 -1.578125 -6.546875 -4.421875q-2.71875 -2.84375 -4.21875 -6.78125q-1.484375 -3.953125 -1.484375 -8.671875q0 -4.71875 1.484375 -8.65625q1.5 -3.953125 4.21875 -6.8125q2.734375 -2.859375 6.546875 -4.4375q3.8125 -1.59375 8.453125 -1.59375q4.625 0 8.453125 1.59375q3.828125 1.578125 6.546875 4.4375q2.734375 2.859375 4.234375 6.8125q1.5 3.9375 1.5 8.65625zm-5.84375 0q0 -3.875 -1.0625 -6.953125q-1.046875 -3.078125 -2.984375 -5.203125q-1.9375 -2.125 -4.6875 -3.265625q-2.75 -1.140625 -6.15625 -1.140625q-3.375 0 -6.140625 1.140625q-2.75 1.140625 -4.703125 3.265625q-1.953125 2.125 -3.015625 5.203125q-1.046875 3.078125 -1.046875 6.953125q0 3.875 1.046875 6.9375q1.0625 3.0625 3.015625 5.1875q1.953125 2.125 4.703125 3.265625q2.765625 1.125 6.140625 1.125q3.40625 0 6.15625 -1.125q2.75 -1.140625 4.6875 -3.265625q1.9375 -2.125 2.984375 -5.1875q1.0625 -3.0625 1.0625 -6.9375zm35.135803 -14.453125q-0.265625 0.4375 -0.5625 0.65625q-0.28125 0.21875 -0.75 0.21875q-0.5 0 -1.171875 -0.5q-0.65625 -0.5 -1.671875 -1.09375q-1.0 -0.609375 -2.421875 -1.109375q-1.421875 -0.5 -3.453125 -0.5q-1.90625 0 -3.375 0.515625q-1.453125 0.515625 -2.4375 1.40625q-0.984375 0.875 -1.484375 2.0625q-0.5 1.1875 -0.5 2.5625q0 1.765625 0.859375 2.921875q0.875 1.15625 2.296875 1.984375q1.421875 0.8125 3.21875 1.421875q1.8125 0.59375 3.703125 1.25q1.890625 0.640625 3.6875 1.453125q1.8125 0.796875 3.234375 2.03125q1.421875 1.21875 2.28125 3.015625q0.875 1.78125 0.875 4.40625q0 2.75 -0.953125 5.171875q-0.9375 2.421875 -2.734375 4.21875q-1.796875 1.78125 -4.421875 2.8125q-2.625 1.015625 -5.96875 1.015625q-4.078125 0 -7.4375 -1.484375q-3.359375 -1.484375 -5.734375 -4.0l1.640625 -2.703125q0.234375 -0.3125 0.5625 -0.53125q0.34375 -0.21875 0.75 -0.21875q0.625 0 1.40625 0.65625q0.796875 0.65625 1.984375 1.453125q1.1875 0.78125 2.875 1.453125q1.6875 0.65625 4.125 0.65625q2.015625 0 3.59375 -0.546875q1.59375 -0.5625 2.6875 -1.578125q1.109375 -1.015625 1.6875 -2.421875q0.59375 -1.40625 0.59375 -3.140625q0 -1.90625 -0.875 -3.125q-0.859375 -1.21875 -2.265625 -2.03125q-1.40625 -0.828125 -3.21875 -1.390625q-1.796875 -0.578125 -3.6875 -1.171875q-1.890625 -0.609375 -3.703125 -1.390625q-1.796875 -0.796875 -3.203125 -2.0625q-1.40625 -1.265625 -2.28125 -3.15625q-0.859375 -1.890625 -0.859375 -4.671875q0 -2.234375 0.859375 -4.3125q0.875 -2.078125 2.515625 -3.6875q1.640625 -1.625 4.0625 -2.59375q2.421875 -0.96875 5.5625 -0.96875q3.515625 0 6.421875 1.125q2.90625 1.109375 5.078125 3.21875l-1.390625 2.703125z" fill-rule="nonzero"/><path fill="#000000" fill-opacity="0.0" d="m431.85208 12.18222l11.320648 0l0 70.38746l-11.320648 0l0 -70.38746z" fill-rule="nonzero"/></g></svg>