<?xml version="1.0" encoding="UTF-8" standalone="no"?>
<svg
   width="2278"
   height="1292"
   xml:space="preserve"
   overflow="hidden"
   version="1.1"
   id="svg7"
   sodipodi:docname="Logo-DarkBG.svg"
   inkscape:export-filename="Logo.png"
   inkscape:export-xdpi="96"
   inkscape:export-ydpi="96"
   inkscape:version="1.4 (86a8ad7, 2024-10-11)"
   xmlns:inkscape="http://www.inkscape.org/namespaces/inkscape"
   xmlns:sodipodi="http://sodipodi.sourceforge.net/DTD/sodipodi-0.dtd"
   xmlns="http://www.w3.org/2000/svg"
   xmlns:svg="http://www.w3.org/2000/svg"><sodipodi:namedview
     id="namedview7"
     pagecolor="#ffffff"
     bordercolor="#000000"
     borderopacity="0.25"
     inkscape:showpageshadow="2"
     inkscape:pageopacity="0.0"
     inkscape:pagecheckerboard="0"
     inkscape:deskcolor="#d1d1d1"
     showgrid="false"
     inkscape:export-bgcolor="#00000000"
     inkscape:zoom="0.90325077"
     inkscape:cx="1138.665"
     inkscape:cy="646"
     inkscape:window-width="3440"
     inkscape:window-height="1369"
     inkscape:window-x="-8"
     inkscape:window-y="-8"
     inkscape:window-maximized="1"
     inkscape:current-layer="svg7" /><defs
     id="defs1"><clipPath
       id="clip0"><path
         d="M1016.5 1514.39C850.604 1514.39 716.118 1648.98 716.118 1815 716.118 1981.02 850.604 2115.61 1016.5 2115.61 1182.4 2115.61 1316.88 1981.02 1316.88 1815 1316.88 1648.98 1182.4 1514.39 1016.5 1514.39ZM371 1169 1662 1169 1662 2461 371 2461Z"
         fill-rule="evenodd"
         clip-rule="evenodd"
         id="path1" /></clipPath></defs><g
     transform="translate(-371 -1169)"
     id="g7"><text
       fill="#FFFFFF"
       font-family="Smooch Sans,Smooch Sans_MSFontService,sans-serif"
       font-weight="700"
       font-size="367"
       transform="matrix(1 0 0 1 1597.53 2059)"
       id="text1">ENGINE</text><text
       fill="#FFFFFF"
       font-family="Smooch Sans,Smooch Sans_MSFontService,sans-serif"
       font-weight="700"
       font-size="367"
       transform="matrix(1 0 0 1 2371.54 2059)"
       id="text2"> </text><path
       d="M1438.75 2208.63C1221.16 2441.63 855.727 2454.28 622.527 2236.88 389.327 2019.48 376.669 1654.37 594.255 1421.37 811.84 1188.37 1177.27 1175.72 1410.47 1393.12 1417.5 1399.67 1424.36 1406.4 1431.06 1413.29L1016.5 1815Z"
       stroke="#000000"
       stroke-width="48.125"
       stroke-miterlimit="8"
       fill="#FFFFFF"
       fill-rule="evenodd"
       id="path2" /><path
       d="M682 1815C682 1629.98 831.761 1480 1016.5 1480 1201.24 1480 1351 1629.98 1351 1815 1351 2000.02 1201.24 2150 1016.5 2150 831.761 2150 682 2000.02 682 1815Z"
       fill="#FFFFFF"
       fill-rule="evenodd"
       id="path3" /><g
       clip-path="url(#clip0)"
       id="g6"><g
         id="g5"><g
           id="g4"><path
             d="M645.5 806.875C556.744 806.875 484.125 734.256 484.125 645.5 484.125 556.744 556.744 484.125 645.5 484.125 734.256 484.125 806.875 556.744 806.875 645.5 806.875 734.256 734.256 806.875 645.5 806.875ZM1008.59 544.641C1000.53 515.055 988.422 486.815 973.629 461.264L1007.25 360.404 930.596 283.751 829.737 317.371C802.841 302.578 774.6 290.475 745.015 282.406L699.292 188.271 591.708 188.271 544.641 282.406C515.055 290.475 486.815 302.578 461.264 317.371L360.404 283.751 283.751 360.404 317.371 461.264C302.578 488.159 290.475 516.4 282.406 545.985L188.271 591.708 188.271 699.292 282.406 746.359C290.475 775.945 302.578 804.185 317.371 829.737L283.751 930.596 360.404 1007.25 461.264 973.629C488.159 988.422 516.4 1000.53 545.985 1008.59L593.053 1102.73 700.636 1102.73 747.704 1008.59C777.29 1000.53 805.53 988.422 831.081 973.629L931.941 1007.25 1008.59 930.596 974.974 829.737C989.767 802.841 1001.87 774.6 1009.94 745.015L1104.07 697.947 1104.07 590.364 1008.59 544.641Z"
             transform="matrix(1 0 0 1.00077 371 1169)"
             id="path4" /></g></g></g><path
       d="M848 1815C848 1721.66 923.664 1646 1017 1646 1110.34 1646 1186 1721.66 1186 1815 1186 1908.34 1110.34 1984 1017 1984 923.664 1984 848 1908.34 848 1815Z"
       fill-rule="evenodd"
       id="path6" /><text
       fill="#FFFFFF"
       font-family="Smooch Sans,Smooch Sans_MSFontService,sans-serif"
       font-weight="700"
       font-size="367"
       transform="matrix(1 0 0 1 1457 1786)"
       id="text6">CHAOS</text><text
       fill="#FFFFFF"
       font-family="Smooch Sans,Smooch Sans_MSFontService,sans-serif"
       font-weight="700"
       font-size="367"
       transform="matrix(1 0 0 1 2157.67 1786)"
       id="text7"> </text></g></svg>
